<svg width="850" height="851" viewBox="0 0 850 851" fill="none" xmlns="http://www.w3.org/2000/svg">
<path d="M849.382 516.964C838.082 517.864 832.482 510.764 834.982 499.464C835.682 496.064 832.582 492.864 833.282 489.064C833.882 485.964 831.182 481.064 836.182 480.464C840.282 479.864 844.782 481.464 847.682 485.264C848.382 486.164 848.682 487.464 849.082 488.564C849.082 490.964 849.182 493.464 849.182 495.864C845.582 497.464 845.482 499.164 849.182 500.764C849.282 506.264 849.382 511.564 849.382 516.964Z" fill="#1D1D1F"/>
<path d="M796.782 766.064C795.682 761.664 797.682 759.764 803.082 759.264C823.882 757.464 824.582 757.964 824.982 779.664C825.082 783.064 824.082 784.764 820.682 784.864C814.682 785.164 808.582 785.864 802.582 786.264C798.982 786.564 798.082 784.064 797.882 781.064C797.482 776.364 797.182 771.664 796.782 766.064Z" fill="#1D1D1F"/>
<path d="M803.414 459.043C804.414 461.743 805.414 464.543 806.314 467.243C801.414 468.243 796.514 469.043 791.714 470.243C789.614 470.743 785.314 469.143 786.514 473.943C787.314 477.143 788.514 480.843 793.114 480.143C804.814 478.543 816.514 476.943 828.314 475.343C835.414 474.343 842.214 471.043 849.714 472.043C849.614 474.043 849.614 476.043 849.514 478.043C836.414 479.543 823.614 482.043 811.214 485.743C824.214 490.043 838.814 488.543 849.614 499.143C849.614 500.543 849.614 501.843 849.514 503.243C834.814 502.043 820.314 499.143 805.614 499.043C803.914 499.043 801.114 497.943 801.014 500.943C800.914 503.043 801.614 506.343 803.814 506.543C814.414 507.243 812.414 516.243 813.114 522.143C816.014 545.643 818.614 569.143 819.714 592.843C819.914 598.143 823.414 603.243 824.114 608.943C824.514 612.043 824.414 614.643 820.714 614.843C817.214 615.043 814.314 613.643 814.714 609.243C816.814 586.243 812.114 563.543 811.714 540.743C811.514 529.443 807.814 526.143 796.914 526.543C791.114 526.743 787.614 524.443 788.514 517.943C788.814 516.043 788.014 515.243 786.614 514.543C783.514 512.943 780.014 512.943 776.814 512.143C770.814 510.643 772.314 516.443 771.214 518.743C769.214 522.643 766.614 523.143 763.414 522.343C762.214 522.043 761.514 520.043 760.414 522.343C759.814 523.643 759.914 524.543 760.914 526.143C765.814 533.943 764.314 537.343 755.914 537.843C752.214 538.043 752.514 539.343 753.314 542.443C754.914 548.143 760.314 551.643 759.814 559.043C759.414 565.043 758.014 571.143 758.614 577.243C758.714 577.843 758.414 578.843 758.014 579.143C741.314 591.543 724.114 602.843 703.314 606.843C697.614 607.943 692.014 611.343 686.414 611.043C675.614 610.443 665.914 615.143 655.114 614.943C644.214 614.743 633.314 616.443 622.314 615.943C616.414 615.643 614.814 616.743 616.414 623.243C619.414 635.543 623.414 647.343 628.214 659.043C629.514 662.243 629.014 664.643 627.314 667.843C624.914 672.443 617.714 674.843 620.614 682.143C621.014 683.243 618.914 683.543 617.814 683.943C611.214 686.043 604.114 685.743 597.414 690.843C598.014 685.243 601.514 683.143 604.114 680.143C599.614 678.943 595.614 679.243 591.614 680.443C587.614 681.643 585.214 680.343 583.814 676.243C577.114 656.543 567.314 638.343 558.214 619.843C557.314 618.043 556.714 616.043 554.314 616.043C552.614 616.043 551.414 617.043 551.214 618.643C549.814 630.643 540.714 639.643 538.814 651.443C538.014 656.243 537.914 660.843 539.214 665.343C541.414 672.843 541.014 680.443 541.314 688.143C541.514 694.143 538.814 696.543 534.014 696.743C522.114 697.343 515.614 703.943 512.514 715.243C511.214 719.743 509.414 725.443 504.914 726.343C500.614 727.243 498.014 721.743 495.314 718.443C489.314 711.143 488.614 702.043 488.114 693.143C486.414 662.443 480.214 632.743 469.514 604.043C467.714 599.343 464.714 598.443 460.714 597.843C454.014 596.943 448.014 594.943 445.914 587.343C445.614 586.443 444.814 585.243 445.114 584.643C450.014 574.143 441.314 577.743 437.314 577.043C434.014 576.443 430.614 576.943 427.314 576.943C426.614 574.843 428.214 574.043 429.314 573.443C439.214 568.143 444.214 557.343 453.214 551.143C455.314 549.743 453.714 547.443 453.214 545.643C448.714 530.943 444.214 516.243 439.614 501.643C437.214 493.943 436.314 486.643 439.314 478.443C442.214 470.643 439.914 461.743 441.114 453.343C444.914 427.843 444.814 401.843 450.814 376.543C452.014 371.543 449.114 366.343 446.414 363.943C442.414 360.443 443.814 356.643 442.414 353.043C437.914 341.143 441.914 331.443 448.114 321.643C450.114 318.443 452.114 315.543 454.614 312.943C458.514 309.043 460.414 304.343 459.214 298.843C458.814 297.043 457.714 295.543 460.514 295.243C462.514 295.043 463.914 296.243 464.114 298.043C464.314 299.643 463.414 302.743 463.814 302.943C468.814 304.943 457.914 313.043 467.914 313.343C472.214 313.443 474.914 318.343 479.814 319.843C488.914 322.643 498.114 321.743 507.114 322.943C516.914 324.243 525.514 328.243 534.414 331.643C546.414 336.243 553.214 345.943 556.014 358.143C560.714 378.243 563.014 398.843 563.014 419.443C563.014 435.043 565.214 449.943 569.814 464.743C573.314 476.343 577.514 487.743 576.614 500.343C576.314 503.743 578.714 506.343 580.514 508.943C585.214 515.543 587.714 522.843 587.714 531.143C587.714 537.343 592.414 541.843 595.014 546.943C599.014 554.643 602.314 561.943 599.614 570.943C598.614 574.343 599.514 577.643 601.914 580.643C604.314 583.643 607.014 587.043 608.014 590.643C610.314 598.443 614.814 600.643 622.414 600.243C680.514 597.043 726.614 572.943 756.614 520.443C769.314 498.243 777.114 474.443 778.514 448.643C778.714 444.443 778.414 440.243 778.614 436.143C778.714 433.143 780.314 431.843 783.414 431.943C786.414 432.043 787.414 433.943 787.014 436.343C786.214 441.043 789.314 442.543 792.414 444.443C800.114 449.143 809.014 452.743 809.714 464.043C804.914 466.243 806.914 458.043 802.914 459.043C802.914 457.943 803.014 456.743 801.414 456.543C801.314 456.543 801.014 456.843 800.914 456.943C801.014 458.743 802.614 458.443 803.414 459.043ZM483.814 461.343C483.814 458.943 483.714 456.943 483.814 454.943C484.014 451.843 483.514 449.143 479.914 449.343C476.814 449.543 475.214 451.743 475.514 455.043C475.814 459.243 476.314 463.443 476.714 467.643C477.014 471.243 479.714 471.243 482.014 471.243C484.914 471.243 484.414 468.743 484.314 466.843C484.214 464.843 484.014 462.843 483.814 461.343ZM786.414 457.943C786.014 459.143 785.814 460.743 786.814 461.343C788.014 462.143 789.714 461.743 790.814 460.643C792.414 459.143 793.814 457.443 795.414 456.043C797.814 454.043 796.314 452.043 795.414 450.143C794.214 447.243 791.114 447.743 789.114 447.643C786.314 447.443 787.514 450.543 787.314 452.243C787.214 454.143 787.714 456.243 786.414 457.943ZM680.414 601.543C679.914 603.243 678.214 606.043 682.014 605.843C684.514 605.743 688.214 605.443 687.514 601.643C687.014 599.243 687.314 594.943 683.414 594.843C678.514 594.643 678.614 597.743 680.414 601.543ZM495.814 373.143C493.614 374.143 495.114 369.743 492.314 370.343C490.114 370.843 487.514 370.543 487.414 373.243C487.314 374.743 489.114 377.343 490.414 377.643C493.614 378.543 493.514 373.843 495.814 373.143ZM780.714 496.943C780.314 497.943 780.114 498.943 779.514 499.543C776.414 502.843 778.614 504.743 781.314 506.443C783.114 507.543 785.814 509.443 787.214 507.643C789.214 504.843 785.814 503.143 784.314 501.143C783.214 499.843 782.114 498.543 780.714 496.943ZM491.214 529.643C491.814 535.143 490.814 541.043 495.514 546.443C495.114 539.943 494.814 534.443 491.214 529.643ZM485.314 419.143C485.314 416.943 484.614 415.143 482.314 414.843C479.814 414.543 478.914 416.443 478.914 418.643C478.914 420.643 479.314 422.843 481.814 423.043C484.214 423.143 485.114 421.343 485.314 419.143ZM518.214 454.443C518.914 449.643 520.214 446.643 517.614 443.943C516.914 443.243 515.514 443.343 515.214 444.443C514.314 447.543 515.014 450.443 518.214 454.443ZM797.514 509.743C796.814 504.743 794.414 502.043 790.314 499.443C790.614 504.843 792.314 508.043 797.514 509.743Z" fill="#1D1D1F"/>
<path d="M312.514 393.143C312.214 390.043 315.014 388.743 316.414 387.043C319.914 382.743 326.214 380.843 323.014 372.243C322.014 369.543 324.814 360.143 331.614 358.143C341.414 355.243 349.714 349.043 359.414 346.243C368.114 343.743 368.114 343.643 371.114 337.543C373.214 338.443 372.514 340.443 372.714 342.043C373.114 345.143 375.214 344.743 377.014 344.143C378.914 343.543 381.214 342.143 380.014 339.943C377.214 335.243 380.114 329.543 376.614 324.943C379.514 326.043 382.714 326.243 382.714 330.543C382.714 333.243 385.314 332.843 387.014 333.643C393.914 336.443 394.914 340.343 391.114 346.843C388.014 352.143 385.314 357.643 382.314 363.043C380.614 366.143 381.014 369.743 383.514 371.043C387.014 372.943 387.314 368.443 388.514 366.343C391.814 360.543 394.514 354.543 396.414 348.043C397.414 344.343 399.314 343.643 402.714 346.243C409.814 351.543 410.314 358.743 410.114 367.043C404.314 363.143 396.314 369.043 394.814 377.043C391.414 395.743 388.014 414.443 384.214 433.043C380.514 450.743 372.614 466.943 366.814 483.843C362.914 495.043 352.514 499.643 343.814 505.743C330.114 515.243 330.014 515.043 334.714 531.443C336.914 538.943 340.114 545.843 344.814 551.843C354.814 564.743 365.314 577.043 378.214 586.943C384.014 591.343 389.614 595.643 398.114 593.843C403.114 592.843 402.414 598.843 401.914 602.043C401.214 606.343 399.314 610.543 396.414 613.843C389.914 621.243 388.914 631.843 382.714 639.043C375.614 647.443 371.814 657.543 366.314 666.743C360.614 676.243 361.914 678.843 374.114 680.843C368.314 690.643 364.614 700.543 352.314 704.943C332.414 712.243 315.414 725.343 298.714 738.543C268.914 762.043 243.114 790.243 214.014 814.543C198.314 827.643 181.914 840.143 162.014 846.343C159.814 847.043 157.614 848.743 154.314 847.143C160.214 841.643 166.814 838.243 173.814 836.343C183.114 833.843 190.214 828.343 197.314 822.043C217.014 804.443 235.614 785.543 253.614 766.243C271.714 746.743 293.714 732.543 314.614 716.843C317.414 714.743 319.414 713.343 316.314 709.443C300.614 689.943 286.414 669.143 263.514 657.143C252.614 651.443 247.514 651.043 239.514 660.543C228.914 673.243 217.814 685.343 205.614 696.343C194.814 706.143 184.014 716.043 170.914 722.643C170.014 723.043 169.114 723.443 167.914 722.343C168.414 719.343 170.714 717.143 172.514 714.643C186.314 695.143 203.314 678.643 219.714 661.643C224.714 656.443 229.414 651.443 232.114 644.643C236.914 632.643 230.214 623.443 224.314 614.443C216.614 602.743 207.814 591.743 199.814 580.143C196.414 575.243 194.014 575.743 190.214 579.643C172.814 597.243 161.514 618.943 150.214 640.643C147.414 646.143 144.714 651.543 140.414 656.143C138.314 658.443 136.814 658.343 135.014 656.643C128.514 650.543 120.414 647.843 112.214 645.743C107.614 644.543 107.314 642.643 109.614 639.043C121.214 620.143 132.014 600.743 145.414 582.943C147.014 580.843 148.014 578.243 149.314 575.843C152.114 570.643 155.014 565.543 162.114 566.343C164.014 566.543 166.614 566.143 167.214 564.143C169.914 553.843 182.414 552.143 185.414 542.143C195.714 542.543 196.114 528.843 205.214 527.643C205.614 527.543 206.214 527.143 206.314 526.743C208.214 517.643 217.914 515.043 221.614 507.443C225.214 499.943 231.014 496.243 239.214 497.143C243.014 497.543 245.114 495.143 246.514 492.143C247.514 490.043 245.514 488.843 244.314 488.043C241.114 485.843 239.014 488.343 236.914 490.443C236.914 490.443 236.914 490.643 236.914 490.743C237.014 490.543 237.314 490.443 237.314 490.243C237.814 484.743 241.214 481.743 246.014 480.543C254.414 478.543 260.514 475.043 264.614 466.343C269.414 456.143 276.414 447.043 282.714 437.543C286.214 432.243 288.314 426.743 288.914 420.343C289.614 412.543 293.514 407.043 301.114 404.343C306.414 402.443 310.514 398.543 313.814 393.943C314.214 393.443 314.914 392.643 314.914 392.643C313.414 391.443 312.914 392.243 312.514 393.143ZM330.514 371.243C330.014 371.743 329.614 372.243 329.114 372.743C329.014 372.843 328.914 372.943 328.814 373.043C328.914 372.943 328.914 372.743 329.014 372.643C329.514 372.143 329.914 371.643 330.414 371.143C330.614 371.143 330.814 371.143 330.914 371.043C331.014 371.043 331.114 370.843 331.114 370.743C331.014 370.943 330.814 371.143 330.514 371.243ZM320.414 416.143C316.514 417.843 312.614 419.543 308.514 421.243C315.314 425.443 317.514 420.043 320.414 416.143ZM305.114 601.743C302.314 606.043 305.114 607.843 307.714 607.443C310.814 606.943 314.114 605.243 315.714 601.843C316.214 600.843 308.014 591.743 307.014 592.143C302.214 594.543 303.314 598.443 305.114 601.743ZM362.414 634.543C361.014 632.743 358.814 632.043 356.414 632.043C353.914 632.043 352.014 633.243 352.214 636.043C352.514 639.043 354.614 640.243 357.414 639.943C360.114 639.643 361.614 637.843 362.414 634.543ZM299.814 576.743C298.714 574.743 300.314 570.543 296.814 570.443C293.814 570.343 294.914 575.843 291.514 576.643C292.414 578.643 293.314 580.743 295.814 580.843C298.514 580.943 300.014 579.743 299.814 576.743ZM352.314 604.743C355.914 610.943 363.114 613.443 366.214 620.143C365.414 611.343 357.514 609.243 352.314 604.743ZM277.314 532.943C277.014 534.543 278.214 534.943 279.414 534.843C283.814 534.443 284.514 530.943 285.014 527.543C285.214 525.843 284.714 523.643 282.514 524.043C277.814 524.943 279.514 530.143 277.314 532.943ZM379.014 638.343C378.814 636.743 378.614 635.043 376.614 636.043C373.814 637.443 369.614 637.243 369.114 641.543C368.814 644.343 371.314 644.243 373.114 644.343C377.014 644.343 378.414 641.743 379.014 638.343ZM319.114 613.443C317.414 613.643 315.714 614.143 316.014 615.943C316.514 618.943 319.114 620.043 321.714 620.843C323.114 621.243 324.414 620.543 324.014 619.143C323.314 616.443 321.814 614.243 319.114 613.443ZM290.914 552.543C290.914 550.043 291.514 547.143 288.814 547.543C285.114 548.043 286.214 552.743 284.314 555.143C283.514 556.143 285.614 557.543 287.014 557.543C290.714 557.543 290.914 554.843 290.914 552.543ZM342.014 417.343C339.914 417.543 338.214 418.343 338.114 420.843C338.014 422.843 339.114 424.343 341.014 424.343C343.414 424.343 345.314 423.043 345.414 420.443C345.614 418.543 344.014 417.543 342.014 417.343ZM344.214 626.943C343.714 623.543 340.814 625.243 339.214 624.443C336.014 622.843 335.914 626.243 334.414 627.143C335.714 628.843 336.714 630.843 339.414 630.643C341.814 630.443 343.414 629.243 344.214 626.943ZM324.314 602.643C324.314 607.443 325.914 610.043 329.014 612.643C329.314 608.343 328.014 605.643 324.314 602.643ZM333.614 369.343C337.414 368.243 339.414 366.343 340.214 363.243C337.614 364.443 334.814 365.543 333.614 369.343Z" fill="#1D1D1F"/>
<path d="M582.514 94.1433C582.314 95.7433 584.014 97.7433 582.314 99.0433C580.614 100.443 579.314 98.6433 577.914 97.7433C566.614 89.8433 556.314 81.1433 552.114 66.8433C551.214 63.6433 548.514 61.1433 547.014 58.0433C540.314 44.4433 542.914 31.4433 551.914 20.5433C560.814 9.64334 573.114 4.94334 587.214 7.34334C590.814 7.94334 594.514 9.94334 597.314 12.3433C612.514 25.5433 630.214 37.1433 628.514 61.6433C628.214 65.6433 628.114 69.5433 625.414 74.5433C622.714 68.3433 617.214 64.2433 624.314 57.5433C627.714 54.3433 624.414 49.7433 622.214 47.0433C619.314 43.5433 619.514 49.8433 617.114 49.6433C610.314 40.5433 610.314 40.6433 600.914 48.6433C597.014 51.9433 592.814 54.2433 587.714 50.5433C585.814 49.1433 583.714 47.1433 581.114 48.0433C579.414 48.6433 580.114 50.6433 580.714 51.9433C582.114 55.0433 581.114 60.2433 586.114 60.4433C589.814 60.5433 593.214 62.8433 597.314 61.5433C600.114 60.6433 603.114 61.8433 599.914 65.9433C596.614 70.2433 599.214 75.8433 596.814 80.8433C595.314 83.8433 599.714 84.3433 602.514 84.1433C608.814 83.6433 613.614 80.0433 618.514 75.1433C621.514 85.6433 615.914 93.3433 612.214 100.843C610.514 104.243 610.214 110.443 603.514 110.243C601.014 110.243 601.714 113.143 602.914 114.943C604.114 116.743 607.114 118.243 605.514 120.443C603.814 122.843 601.114 120.343 598.814 120.143C598.114 120.043 597.414 120.443 596.614 120.743C604.614 136.043 616.514 148.243 625.914 162.443C642.314 187.143 643.314 214.843 643.514 242.943C643.514 245.943 643.314 245.943 638.514 249.943C638.014 244.743 634.614 244.043 630.714 244.843C616.114 247.743 601.314 247.043 586.614 249.143C584.314 249.443 582.014 250.343 579.814 251.343C588.914 252.143 598.114 250.943 607.014 252.843C609.114 253.243 613.014 251.643 612.814 255.243C612.614 258.443 608.914 257.443 606.714 257.243C589.814 255.943 573.214 258.043 556.914 262.443C549.914 264.343 543.114 267.043 536.214 269.543C533.414 270.543 530.714 271.143 529.414 267.843C528.014 264.043 530.614 262.943 533.814 262.043C539.514 260.343 541.814 257.243 538.114 251.043C535.414 246.643 535.714 242.743 538.514 237.043C542.614 228.743 547.414 221.743 554.314 215.943C546.314 220.343 540.514 226.943 536.414 235.443C533.914 224.043 533.614 213.043 537.514 202.543C538.914 198.643 538.714 195.043 538.914 191.143C539.314 185.043 537.414 179.043 539.314 172.643C542.114 163.343 540.314 152.843 545.314 143.843C546.014 142.643 545.514 140.543 543.814 140.243C541.014 139.843 539.814 142.443 539.614 144.443C538.814 150.343 535.714 150.943 531.214 149.143C534.314 140.243 543.614 136.943 547.814 128.843C550.014 124.543 556.014 124.543 560.114 121.743C569.014 115.643 579.714 112.743 589.914 109.243C591.314 108.743 593.214 109.043 592.314 107.243C589.814 102.243 590.414 95.0433 583.414 92.9433C582.914 92.7433 582.414 92.6433 581.914 92.4433C582.214 93.1433 582.414 93.6433 582.514 94.1433ZM561.514 49.8433C569.214 43.9433 579.414 43.6433 584.614 34.8433C585.714 32.9433 588.714 32.7433 591.414 33.4433C593.814 34.0433 595.714 32.9433 595.914 30.0433C596.114 27.5433 594.614 26.5433 592.614 25.8433C581.014 21.9433 561.514 36.5433 561.514 49.8433ZM585.414 22.7433C575.814 15.0433 559.114 21.9433 556.214 34.1433C564.614 26.7433 572.414 19.0433 585.414 22.7433ZM614.914 195.943C615.514 195.843 616.114 195.843 616.714 195.743C615.214 188.443 613.814 181.143 609.414 174.643C611.314 181.843 613.114 188.943 614.914 195.943ZM544.314 251.643C552.614 242.643 555.914 236.443 555.714 231.443C551.714 238.543 548.014 245.043 544.314 251.643ZM585.414 129.443C582.614 129.043 580.314 130.643 577.714 130.043C576.314 129.743 574.714 130.343 574.514 132.143C574.414 132.643 575.014 133.543 575.514 133.843C576.914 134.743 578.714 136.043 580.014 134.243C581.514 132.343 583.314 130.843 585.414 129.443ZM602.914 147.743C602.814 145.843 601.614 145.043 600.114 145.243C598.814 145.443 596.914 145.743 597.014 147.543C597.114 149.243 598.414 150.743 600.314 150.743C601.914 150.743 602.114 148.843 602.914 147.743ZM578.514 64.9433C577.014 65.4433 577.214 66.7433 577.314 67.8433C577.414 69.3433 578.014 70.8433 579.814 70.6433C581.414 70.5433 581.314 69.0433 581.114 67.8433C580.814 66.4433 580.414 65.0433 578.514 64.9433Z" fill="#1D1D1F"/>
<path d="M679.614 200.344C685.914 212.044 691.414 223.444 698.014 234.144C701.414 239.544 700.914 242.844 696.414 246.644C693.614 249.044 691.214 251.844 688.614 254.444C683.714 259.244 680.414 257.544 676.114 252.244C668.014 242.344 666.614 229.844 661.514 218.944C660.914 217.744 661.514 210.444 655.914 215.444C654.514 216.744 654.414 214.044 654.314 213.344C652.714 200.144 652.314 186.744 649.414 173.944C647.514 165.344 647.514 156.644 646.514 148.144C645.514 139.644 646.314 131.044 643.814 122.544C642.014 116.244 640.514 110.244 635.214 105.644C631.814 102.744 631.814 97.7437 631.314 91.7437C636.414 97.7437 645.014 96.2436 646.714 104.444C651.814 100.044 657.114 107.044 661.614 104.644C664.914 102.844 667.014 104.044 669.714 105.044C677.314 107.744 685.114 109.744 692.214 113.444C697.114 115.944 699.814 119.144 701.614 125.244C707.214 143.944 714.414 162.144 721.114 180.544C723.914 188.244 726.714 195.844 729.714 203.444C731.314 207.544 730.014 209.744 726.814 212.744C720.714 218.644 715.514 225.444 710.314 232.144C707.014 236.344 705.114 235.744 702.614 231.244C697.514 222.044 690.414 214.244 685.914 204.644C684.914 202.244 683.314 200.244 679.614 200.344ZM656.414 128.244C654.814 128.344 653.614 128.944 653.514 130.744C653.414 132.444 653.714 134.244 655.814 134.644C657.514 134.944 658.314 133.544 658.614 132.044C659.214 130.044 658.214 128.844 656.414 128.244ZM651.314 107.444C651.114 106.144 650.514 105.344 649.414 105.444C648.814 105.444 647.814 106.044 647.814 106.344C647.814 107.644 648.314 108.744 649.914 108.544C650.414 108.444 650.814 107.844 651.314 107.444ZM652.514 147.144C652.314 147.044 652.214 146.844 652.014 146.744C651.814 147.044 651.614 147.444 651.514 147.744C651.514 147.844 651.814 148.044 651.914 148.144C652.114 147.844 652.314 147.444 652.514 147.144Z" fill="#1D1D1F"/>
<path d="M224.014 71.8434C223.814 109.743 198.114 137.043 163.114 137.043C124.614 137.043 100.414 108.643 100.214 74.4434C99.9144 33.5434 126.314 5.84337 165.014 7.04337C198.514 8.14337 224.914 34.6434 224.014 71.8434ZM125.714 68.8434C125.814 87.8434 130.414 100.643 144.114 108.843C153.614 114.543 175.414 115.143 185.914 103.843C198.714 90.2434 201.314 74.4434 197.014 57.8434C190.914 34.4434 169.014 24.4434 146.914 34.3434C131.314 41.2434 126.014 55.8434 125.714 68.8434Z" fill="#1D1D1F"/>
<path d="M97.2143 40.1438C97.3143 60.2438 89.1142 72.1438 70.6142 78.2438C66.4142 79.6438 65.8142 81.0438 68.1142 85.0438C75.5142 98.3438 82.3141 112.044 89.8141 125.344C92.9141 130.744 90.7143 131.944 86.0143 131.744C80.2143 131.544 74.5142 130.244 68.6142 130.944C66.2142 131.244 64.6143 129.644 63.5143 127.444C56.2143 112.944 48.5142 98.6438 41.6142 83.9438C39.2142 78.9438 35.7143 78.5438 31.5143 79.0438C26.9143 79.5438 28.7143 83.6438 28.5143 86.1438C27.5143 98.2438 26.6143 110.344 26.2143 122.444C26.0143 127.044 24.2142 128.044 20.4142 127.544C18.0142 127.244 15.6143 127.044 13.2143 126.844C0.214286 125.944 0.214139 126.044 1.31414 112.644C2.91414 93.7438 3.21433 74.6438 4.51433 55.7438C5.71433 38.7438 6.01424 21.7438 7.91424 4.84377C8.21424 2.04377 8.21414 -0.356225 12.3141 0.0437747C31.1141 1.84377 50.1143 0.643773 68.7143 4.64377C85.9143 8.54377 97.2143 22.8438 97.2143 40.1438ZM52.2143 62.1438C52.2143 62.0438 52.2143 61.9438 52.2143 61.8438C53.2143 61.7438 54.1142 61.6438 55.1142 61.6438C64.9142 60.9438 70.9143 55.1438 71.7143 45.7438C72.6143 33.9438 68.6141 28.3438 58.3141 25.3438C50.9141 23.2438 43.3143 24.9438 36.0143 23.0438C33.3143 22.3438 32.0142 23.9438 31.9142 26.7438C31.4142 36.3438 30.8142 45.9438 30.4142 55.5438C30.3142 58.2438 30.2143 61.1438 34.2143 61.3438C40.2143 61.4438 46.2143 61.8438 52.2143 62.1438Z" fill="#1D1D1F"/>
<path d="M783.514 292.744C782.114 290.944 780.114 290.544 778.314 290.744C765.814 291.944 753.214 291.744 740.914 294.544C739.514 294.844 738.014 294.844 736.614 294.944C734.314 295.144 731.614 295.144 731.514 292.344C731.414 289.544 734.114 289.344 736.314 289.544C756.214 290.944 775.214 285.244 794.614 282.544C803.614 281.244 813.014 281.344 821.614 277.144C822.014 276.944 829.614 278.344 829.314 284.144C829.114 288.344 828.014 292.644 832.614 295.444C833.114 295.744 833.314 297.444 832.914 298.144C830.714 302.344 832.114 305.944 834.314 309.644C835.214 311.144 836.214 313.444 835.014 315.344C832.414 319.444 832.914 323.244 835.014 327.244C835.714 328.644 835.914 331.044 833.914 331.744C829.714 333.244 833.014 329.944 832.514 329.044C831.014 326.744 829.314 327.544 827.514 328.544C819.414 332.944 811.014 335.244 801.714 334.444C797.414 334.044 790.914 340.044 791.214 343.744C791.314 344.244 792.114 345.044 792.614 345.044C793.514 345.044 795.114 344.744 795.114 344.344C797.214 333.744 806.314 337.444 812.514 335.444C815.914 334.344 819.614 334.044 823.214 333.444C824.614 333.244 826.214 332.844 826.814 334.844C827.514 336.844 826.714 338.244 824.714 338.844C821.014 339.944 817.314 341.344 813.414 341.744C808.214 342.344 806.114 344.344 805.414 349.944C802.814 369.444 797.414 388.244 791.814 406.944C791.414 408.344 791.214 409.944 789.314 410.044C787.414 410.144 774.914 400.144 774.414 398.044C767.914 371.944 756.314 348.544 739.514 327.744C738.414 326.444 736.014 325.044 736.914 323.644C741.214 317.044 738.014 311.544 735.214 305.744C733.514 302.244 734.614 299.544 738.814 298.844C750.014 296.944 761.214 295.144 772.414 293.144C774.914 292.644 776.214 294.844 778.114 295.344C780.014 296.044 782.014 294.444 783.514 292.744ZM756.414 338.944C757.914 341.944 759.414 344.944 761.014 347.944C763.014 351.544 766.814 351.144 769.314 349.844C773.614 347.544 770.614 342.644 771.514 338.944C772.314 335.744 768.414 336.944 766.614 337.044C763.314 337.144 759.714 336.544 756.414 338.944ZM779.614 340.544C780.014 342.844 778.514 346.844 783.314 346.544C788.614 346.244 787.814 340.644 789.014 337.644C790.014 335.244 785.814 336.244 783.914 335.944C780.914 335.544 778.414 336.144 779.614 340.544ZM792.814 314.044C792.114 311.744 795.314 307.544 790.114 307.544C787.014 307.544 787.314 310.644 787.714 312.644C788.314 315.044 786.214 319.344 790.514 319.644C794.114 319.644 793.414 316.544 792.814 314.044Z" fill="#1D1D1F"/>
<path d="M550.814 721.144C551.714 721.244 552.314 721.443 552.714 721.243C565.214 716.343 567.814 726.344 571.114 734.344C582.714 762.444 595.314 790.144 608.214 817.644C611.114 823.844 613.714 830.344 616.514 836.644C618.214 840.344 618.414 842.943 613.114 842.243C611.414 842.043 609.714 842.344 608.014 842.444C591.714 843.144 591.414 843.244 585.814 827.644C583.614 821.544 580.814 818.944 574.214 819.644C561.914 820.944 549.514 821.644 537.214 822.344C533.614 822.544 532.114 824.244 531.214 827.544C529.914 832.844 528.114 838.044 527.014 843.344C526.214 847.544 524.214 849.143 520.114 849.243C515.214 849.343 510.314 849.344 505.614 850.344C498.914 851.644 499.514 848.444 500.814 843.844C511.514 806.744 522.414 769.744 532.614 732.544C534.614 725.144 537.214 720.644 545.414 721.444C547.314 721.444 549.314 720.244 550.814 721.144ZM553.114 752.144C552.514 752.144 551.914 752.243 551.314 752.243C547.214 767.243 543.214 782.144 539.014 797.144C537.914 800.944 538.714 802.744 543.014 802.344C548.814 801.844 554.614 801.743 560.414 801.243C573.514 800.143 573.514 800.044 568.414 787.944C563.314 776.044 558.214 764.144 553.114 752.144Z" fill="#1D1D1F"/>
<path d="M278.114 143.744C255.114 144.944 230.914 130.044 229.114 107.844C228.714 103.244 229.114 101.944 233.714 102.944C236.514 103.544 239.514 103.244 242.414 103.544C249.214 104.144 255.414 103.844 258.014 113.544C260.614 122.844 274.214 126.244 282.914 121.844C292.014 117.144 293.414 105.044 285.414 97.4435C277.714 90.2435 267.614 87.3435 258.214 83.5435C240.614 76.4435 231.414 65.1435 231.314 49.4435C231.214 31.0435 241.814 17.7435 260.514 14.6435C277.814 11.7435 294.514 13.6435 307.914 27.1435C309.314 28.5435 310.714 30.0435 311.514 31.7435C314.514 37.8435 321.014 45.8435 316.114 50.4435C310.514 55.5435 300.814 50.5435 292.914 50.3435C290.514 50.2435 291.014 47.2435 290.314 45.5435C285.614 35.2435 272.814 30.9435 264.314 36.9435C257.614 41.6435 256.614 51.2435 261.914 57.5435C265.314 61.6435 270.014 63.8435 274.614 65.9435C282.114 69.3435 289.614 72.7435 297.114 76.3435C315.014 84.8435 319.414 99.4435 316.614 115.244C313.714 131.544 299.814 142.844 282.914 143.744C281.114 143.844 279.214 143.744 278.114 143.744Z" fill="#1D1D1F"/>
<path d="M615.614 722.443C613.214 714.943 617.114 714.144 623.914 714.044C637.214 713.844 650.414 712.144 663.714 711.544C678.814 710.844 692.614 714.643 700.914 728.643C709.614 743.343 710.014 759.144 701.114 773.844C695.114 783.744 684.914 788.444 673.714 790.044C666.314 791.044 658.714 791.843 651.214 792.143C646.514 792.343 645.414 794.443 645.714 798.643C646.614 809.743 647.114 820.843 648.214 831.943C648.814 837.643 647.414 840.544 641.314 840.044C638.914 839.844 636.414 840.243 634.014 840.443C623.314 841.743 623.414 841.744 622.714 831.044C620.514 795.144 618.114 759.043 615.614 722.443ZM641.814 745.844C642.014 748.044 642.414 751.743 642.614 755.443C642.914 759.343 643.114 763.343 643.414 767.243C643.614 770.343 644.414 772.343 648.214 772.143C655.214 771.643 662.214 771.443 669.114 769.743C678.814 767.243 682.614 759.843 681.114 746.943C680.114 738.143 673.814 732.344 664.714 732.344C660.414 732.344 656.014 732.743 651.714 733.143C640.014 734.043 641.414 731.644 641.814 745.844Z" fill="#1D1D1F"/>
<path d="M380.314 128.244C385.114 128.244 388.514 127.944 391.914 128.344C397.214 128.844 402.914 128.244 402.314 137.344C401.514 150.244 402.114 150.244 389.214 149.444C371.314 148.344 353.414 146.844 335.514 146.444C328.414 146.344 326.914 143.944 327.414 137.444C329.014 114.444 330.414 91.5437 331.714 68.5437C332.514 53.7437 333.214 38.8437 333.714 24.0437C333.814 20.3437 334.714 18.8437 338.814 19.1437C358.914 20.5437 379.014 21.6437 399.114 22.8437C407.914 23.3437 407.414 23.3437 407.914 35.0437C408.214 42.4437 405.914 44.3437 398.814 43.6437C387.114 42.4437 375.214 42.6437 363.514 41.4437C358.814 40.9437 358.214 42.5437 358.114 46.5437C357.914 53.7437 357.314 60.8437 356.614 68.0437C356.214 72.2437 357.714 73.5437 361.914 73.7437C373.014 74.1437 384.114 75.3437 395.114 75.6437C399.914 75.7437 400.814 77.7437 400.314 82.0437C398.814 95.0437 398.914 95.2437 386.314 95.0437C377.814 94.9437 369.414 94.3437 360.914 93.7437C357.114 93.4437 355.114 94.1437 355.114 98.7437C355.114 106.144 354.614 113.644 353.814 120.944C353.314 125.744 355.214 126.944 359.414 127.144C366.814 127.244 374.314 127.944 380.314 128.244Z" fill="#1D1D1F"/>
<path d="M785.914 702.343C797.414 701.443 801.614 706.843 799.114 718.843C798.414 722.243 796.014 721.643 794.114 721.843C786.214 722.743 778.214 723.443 770.314 724.043C766.614 724.343 765.714 725.743 766.014 729.743C768.314 760.643 770.214 791.543 772.614 822.443C773.114 828.443 771.814 830.443 765.514 830.843C747.614 831.743 747.914 832.043 746.714 813.643C745.014 786.443 742.914 759.243 741.214 732.043C740.914 727.143 738.914 725.643 734.314 726.243C728.014 727.043 721.614 726.743 715.514 727.943C708.414 729.243 706.014 727.143 706.014 719.743C706.014 707.843 705.514 707.843 717.214 707.043C739.914 705.343 762.914 703.843 785.914 702.343Z" fill="#1D1D1F"/>
<path d="M743.514 274.244C745.314 262.244 737.914 255.244 726.314 258.344C721.614 259.644 719.114 258.044 716.714 254.344C709.214 242.644 709.114 242.744 718.414 232.644C722.214 228.544 726.114 224.344 729.814 220.144C732.114 217.544 734.114 215.844 735.814 220.744C738.014 227.144 742.614 228.544 749.014 227.644C768.014 225.044 768.414 225.244 770.014 244.244C770.714 252.144 771.714 256.944 781.014 253.744C783.814 252.744 787.314 253.644 790.414 253.344C797.314 252.744 801.314 255.944 802.114 263.044C802.214 264.044 802.414 265.044 802.414 266.044C802.314 272.244 804.314 276.044 811.314 274.444C812.914 274.144 814.614 274.544 816.314 275.144C810.014 275.244 803.714 276.744 797.314 274.444C794.914 273.544 792.414 274.444 789.714 275.344C783.414 277.344 776.814 279.144 769.914 277.344C767.414 276.644 763.914 274.344 762.114 278.944C762.014 279.244 760.914 279.444 760.314 279.344C758.414 279.144 756.314 278.144 754.614 278.644C750.514 279.744 747.114 280.644 746.114 274.844C746.014 274.444 744.314 274.444 743.414 274.244H743.514Z" fill="#1D1D1F"/>
<path d="M93.1143 276.344C99.2143 262.644 104.714 251.144 109.514 239.244C112.614 231.444 118.314 234.944 123.114 235.144C128.614 235.444 125.814 240.144 125.814 242.644C125.514 257.944 123.314 273.244 123.714 288.644C123.814 292.044 122.314 294.044 118.914 293.044C115.914 292.144 111.014 294.044 111.614 287.544C112.414 277.744 112.714 267.844 112.014 257.544C108.114 266.744 104.314 275.844 100.414 285.044C99.0143 288.244 97.9143 291.244 93.4143 291.344C89.2143 291.344 86.7144 290.444 85.5144 285.844C82.8144 275.944 79.7144 266.144 76.2144 256.344C73.8144 265.344 74.2144 274.344 74.0144 283.344C73.9144 288.444 72.2144 290.344 67.0144 289.644C62.0144 288.944 60.4144 286.944 61.2144 281.844C63.3144 268.344 63.6143 254.744 63.9143 241.144C64.0143 237.444 62.5142 232.644 67.8142 231.344C73.9142 229.844 79.7143 233.444 81.4143 238.744C84.8143 250.744 88.7143 262.744 93.1143 276.344Z" fill="#1D1D1F"/>
<path d="M57.1143 161.043C51.1143 172.743 45.2143 184.443 38.9143 196.643C51.3143 197.543 62.8143 198.443 74.4143 199.343C74.6143 199.943 74.8144 200.543 75.0144 201.043C51.7144 220.843 28.3144 240.643 5.01443 260.543C14.6144 245.243 25.4143 230.943 35.4143 215.743C24.9143 212.543 14.7143 213.943 4.61429 212.943C3.01429 212.743 0.714286 213.243 0.114286 211.343C-0.485714 209.543 1.41429 208.443 2.61429 207.243C17.9143 192.943 34.1143 179.843 48.6143 164.643C50.4143 162.743 53.0144 161.843 55.2144 160.443C55.9144 160.543 56.5143 160.743 57.1143 161.043Z" fill="#1D1D1F"/>
<path d="M255.514 192.343C252.714 203.243 252.914 212.643 252.614 221.943C252.514 226.943 250.914 228.143 246.114 227.943C241.014 227.743 240.314 226.043 240.714 221.143C241.914 206.343 242.314 191.443 243.214 176.643C243.414 173.743 241.814 169.343 246.514 168.943C250.714 168.543 255.114 168.443 257.714 173.643C262.514 183.043 267.714 192.243 272.814 201.543C274.014 203.643 275.014 205.943 277.814 207.243C279.714 198.643 279.114 190.143 279.614 181.843C279.914 177.443 277.914 170.643 286.814 171.343C291.414 171.743 292.514 173.243 292.214 177.643C291.114 192.443 290.414 207.243 289.314 222.043C289.114 224.943 290.614 229.643 286.614 230.343C282.314 231.143 277.414 230.643 274.714 225.643C269.714 216.543 264.614 207.643 259.514 198.643C258.614 196.843 257.414 195.343 255.514 192.343Z" fill="#1D1D1F"/>
<path d="M117.514 220.343C111.014 219.943 104.414 219.243 97.9142 219.243C93.7142 219.243 92.5141 217.843 92.8141 213.543C93.8141 197.543 94.6143 181.443 95.2143 165.343C95.3143 161.643 97.2143 160.443 100.214 160.443C110.314 160.443 120.614 160.443 130.214 164.443C138.414 167.843 139.614 181.143 132.414 187.743C130.314 189.643 128.614 190.443 131.714 193.143C137.914 198.543 138.514 205.643 135.014 212.743C131.414 219.843 124.614 220.843 117.514 220.343ZM112.414 210.043C121.114 210.143 125.414 207.343 124.614 201.843C123.614 194.243 117.514 194.743 111.914 194.043C101.914 192.743 106.014 201.043 105.114 205.043C103.714 211.843 109.614 209.543 112.414 210.043ZM115.014 186.543C119.814 186.143 125.114 185.343 124.914 178.243C124.714 171.643 119.314 171.643 114.514 170.843C107.514 169.743 106.914 173.943 106.314 179.343C105.514 186.543 110.314 185.843 115.014 186.543Z" fill="#1D1D1F"/>
<path d="M295.514 203.144C296.414 183.344 307.314 173.144 324.214 173.144C341.814 173.144 353.614 186.344 353.114 204.344C352.714 220.244 338.814 233.844 323.614 233.244C307.614 232.544 295.114 219.144 295.514 203.144ZM341.114 202.744C340.914 192.644 332.814 183.644 324.214 184.144C314.814 184.644 307.514 192.844 307.614 203.044C307.714 214.944 314.614 222.444 325.214 222.044C334.514 221.644 341.314 213.444 341.114 202.744Z" fill="#1D1D1F"/>
<path d="M183.014 222.943C174.314 225.543 169.014 222.843 166.114 214.643C164.814 210.943 162.715 207.543 161.015 204.043C160.015 202.043 159.415 199.643 156.515 200.043C153.315 200.543 154.215 203.343 154.015 205.343C153.715 209.543 153.514 213.743 153.314 217.843C153.014 222.643 149.715 221.943 146.515 221.943C142.915 221.943 141.815 220.343 142.015 216.943C142.915 200.643 143.714 184.343 144.614 168.043C144.814 164.543 145.914 162.643 150.114 163.443C158.314 165.043 167.014 162.343 175.114 165.943C181.914 169.043 186.214 174.143 186.114 181.943C186.114 189.543 183.714 196.143 175.714 198.843C171.614 200.243 173.114 202.443 174.414 205.043C177.314 211.043 180.114 216.943 183.014 222.943ZM162.414 174.543C156.014 174.243 155.614 174.443 155.314 179.643C154.614 191.143 155.014 191.643 163.814 192.043C170.314 192.343 173.814 189.343 173.914 183.343C174.114 177.343 171.114 174.943 162.414 174.543Z" fill="#1D1D1F"/>
<path d="M197.114 238.444C203.214 238.344 209.214 239.144 215.114 240.744C222.314 242.744 226.214 247.744 226.914 255.044C227.714 262.444 225.714 268.944 218.614 272.444C214.514 274.444 213.414 276.644 216.014 280.744C217.814 283.644 219.014 286.944 220.514 290.044C221.814 292.644 225.414 295.044 222.814 298.244C220.714 300.744 211.314 297.544 209.714 294.144C207.414 289.244 205.014 284.344 202.714 279.444C201.514 276.944 200.614 273.744 197.214 274.644C194.214 275.544 195.714 278.944 195.314 281.144C194.914 284.044 194.514 287.144 194.914 290.044C195.814 296.544 192.714 297.544 187.414 296.744C184.314 296.244 182.614 295.544 182.914 291.744C184.014 275.444 184.914 259.144 185.714 242.844C185.914 239.344 187.214 237.944 190.614 238.244C192.714 238.544 194.914 238.444 197.114 238.444ZM196.314 257.244C196.414 262.144 194.414 266.944 201.614 266.744C211.114 266.444 215.314 264.444 215.214 258.444C215.114 252.444 211.614 249.644 204.414 249.144C197.514 248.544 195.314 251.844 196.314 257.244Z" fill="#1D1D1F"/>
<path d="M235.914 183.544C234.214 194.244 236.114 204.944 231.714 214.744C227.714 223.544 218.114 227.844 206.514 225.844C197.014 224.144 189.714 216.744 189.114 207.644C188.214 194.944 190.514 182.444 190.714 169.844C190.814 164.644 195.014 166.544 197.814 166.144C201.514 165.544 202.614 167.544 202.414 170.844C201.914 179.244 201.314 187.644 200.814 196.044C200.614 198.544 200.314 201.044 200.514 203.444C201.214 211.044 205.214 214.944 212.114 215.044C219.314 215.044 221.914 210.044 222.514 204.044C223.514 194.444 223.914 184.744 224.214 175.144C224.314 170.144 225.914 168.144 231.114 168.344C236.514 168.444 236.814 170.944 236.014 175.344C235.414 177.944 235.814 181.044 235.914 183.544Z" fill="#1D1D1F"/>
<path d="M156.114 236.844C160.614 236.044 162.914 237.944 164.314 242.744C168.814 258.444 173.814 273.944 178.414 289.544C179.214 292.144 180.814 295.644 175.914 296.244C172.314 296.644 168.314 298.844 166.714 292.644C165.914 289.644 167.214 283.644 161.814 284.344C154.014 285.344 143.614 277.044 138.814 290.744C136.714 296.944 131.014 294.344 127.614 292.944C123.714 291.344 127.114 288.044 128.214 285.544C134.414 271.244 140.714 257.144 146.614 242.744C148.514 237.944 151.114 235.744 156.114 236.844ZM155.314 250.844C152.114 258.344 149.614 264.044 147.214 269.944C146.214 272.444 147.314 273.644 149.914 273.644C152.114 273.644 154.314 273.644 156.414 274.044C161.114 274.844 161.914 272.444 160.714 268.544C159.114 263.344 157.514 258.244 155.314 250.844Z" fill="#1D1D1F"/>
<path d="M265.114 258.343C260.414 258.143 257.614 258.143 256.014 254.243C254.514 250.543 250.814 250.143 247.214 250.843C244.514 251.343 242.814 253.143 242.514 255.843C242.114 259.543 244.214 262.043 247.214 263.543C251.314 265.643 255.614 267.443 259.814 269.343C266.914 272.543 269.814 278.443 269.614 286.043C269.414 293.143 265.014 297.143 259.014 299.743C249.614 303.743 237.114 300.343 231.814 292.143C230.014 289.443 227.014 285.243 230.214 283.143C233.514 281.043 238.914 280.843 241.514 285.743C243.014 288.643 245.014 290.243 248.114 290.943C251.614 291.643 254.314 291.043 255.814 287.343C257.114 283.943 256.814 280.843 253.514 278.943C249.114 276.443 244.514 274.043 239.914 271.843C232.514 268.343 229.214 262.543 230.414 254.743C231.614 246.843 236.514 242.543 244.614 241.443C253.114 240.243 260.614 241.743 266.614 248.343C268.814 250.743 270.114 254.043 269.014 257.243C268.114 259.243 265.414 258.343 265.114 258.343Z" fill="#1D1D1F"/>
<path d="M729.214 281.344C720.814 285.344 713.214 288.844 704.914 280.244C700.514 275.644 695.114 271.244 688.514 269.444C683.214 267.944 685.614 264.144 687.714 263.044C693.614 259.944 697.114 254.544 701.514 250.144C704.014 247.644 705.814 247.144 707.814 250.444C713.114 259.244 718.614 267.844 723.514 276.844C724.914 279.344 727.714 278.944 729.214 281.344Z" fill="#1D1D1F"/>
<path d="M644.114 258.143C660.414 258.643 674.214 266.543 688.014 274.243C698.714 280.143 708.214 287.843 717.614 295.743C719.214 297.043 721.814 298.243 719.614 300.943C717.714 303.243 715.914 303.143 713.514 300.943C693.314 282.843 669.914 270.843 644.014 263.643C642.214 263.143 639.714 263.143 639.814 260.443C639.914 257.543 642.214 257.943 644.114 258.143Z" fill="#1D1D1F"/>
<path d="M461.014 290.743C461.114 287.843 466.214 283.143 458.514 282.743C458.314 282.743 457.914 281.443 457.914 280.843C458.214 277.243 468.414 269.043 471.614 270.343C473.914 271.243 479.014 272.343 474.014 276.643C471.014 279.243 472.414 280.243 475.214 280.943C476.114 281.143 477.114 281.243 478.114 281.543C481.014 282.443 484.414 284.043 483.614 287.343C482.714 291.043 479.514 287.443 477.514 287.843C473.314 288.743 466.914 284.043 465.714 292.743C465.514 294.143 463.714 293.843 462.514 293.643C460.914 293.243 460.814 292.043 461.014 290.743Z" fill="#1D1D1F"/>
<path d="M496.014 286.143C496.014 280.743 500.514 279.843 503.514 277.743C505.614 276.243 508.614 274.643 510.314 278.043C511.414 280.143 512.414 279.643 513.614 278.943C515.214 278.143 514.714 277.343 514.014 275.643C512.314 271.643 515.314 268.143 517.814 265.843C519.614 264.143 522.214 267.043 523.614 268.943C526.114 272.543 523.914 274.843 521.314 277.543C516.314 282.643 510.314 286.243 504.714 290.343C502.914 291.643 501.214 293.243 498.814 292.143C496.114 290.943 496.614 288.143 496.014 286.143Z" fill="#1D1D1F"/>
<path d="M399.982 289.364C409.582 285.164 418.282 284.664 427.382 284.864C424.182 290.564 408.882 293.364 399.982 289.364Z" fill="#1D1D1F"/>
<path d="M426.582 380.664C428.482 380.764 431.282 381.464 430.682 385.064C430.182 387.964 429.682 392.764 426.182 392.364C423.382 392.064 421.282 388.064 420.882 384.464C420.582 381.064 423.082 380.664 426.582 380.664Z" fill="#1D1D1F"/>
<path d="M403.782 555.964C406.082 553.664 402.782 546.064 407.682 546.264C413.382 546.464 409.682 553.164 410.682 556.864C411.182 558.664 413.482 561.064 410.682 562.764C409.282 563.664 407.282 563.664 405.882 562.464C403.982 561.064 402.582 559.364 403.782 555.964Z" fill="#1D1D1F"/>
<path d="M383.382 252.963C380.182 253.263 379.782 252.063 380.082 250.263C380.882 246.163 388.082 242.963 391.882 245.163C393.482 246.063 395.682 247.063 394.582 249.563C393.782 251.463 391.982 252.663 389.882 252.263C388.282 251.963 386.882 250.363 385.382 250.363C384.482 250.363 383.682 252.563 383.382 252.963Z" fill="#1D1D1F"/>
<path d="M726.082 260.664C730.182 263.264 734.982 264.964 733.082 271.064C732.382 273.264 730.482 273.764 728.282 272.664C722.482 269.764 724.882 265.264 726.082 260.664Z" fill="#1D1D1F"/>
<path d="M782.782 380.164C778.282 380.664 777.682 377.564 777.382 374.664C776.982 370.764 780.182 372.464 781.882 372.064C786.282 371.164 786.382 374.764 786.682 377.464C787.282 381.364 783.982 379.664 782.782 380.164Z" fill="#1D1D1F"/>
<path d="M427.082 246.564C424.182 246.164 421.182 245.264 420.882 242.464C420.582 239.964 423.682 239.264 425.782 239.364C429.182 239.564 433.382 240.464 433.582 244.064C433.582 246.964 428.882 244.664 427.082 246.564Z" fill="#1D1D1F"/>
<path d="M587.882 650.964C587.582 653.464 586.282 655.164 583.782 655.364C581.582 655.564 579.782 654.164 580.082 651.864C580.282 649.864 580.882 647.264 583.482 646.864C586.282 646.564 587.182 648.764 587.882 650.964Z" fill="#1D1D1F"/>
<path d="M630.282 215.263C630.382 217.563 629.082 218.563 627.082 218.163C625.182 217.763 621.782 218.163 622.182 215.263C622.382 213.363 624.682 210.463 626.482 210.063C629.682 209.463 629.282 213.263 630.282 215.263Z" fill="#1D1D1F"/>
<path d="M743.182 232.264C743.482 235.564 741.582 237.064 737.282 238.664C738.882 234.864 738.782 231.664 743.282 232.364L743.182 232.264Z" fill="#1D1D1F"/>
<path d="M731.682 238.364C730.782 238.264 729.682 238.364 729.882 236.864C730.082 235.264 731.082 234.164 732.682 233.864C733.682 233.664 734.582 234.164 734.582 235.464C734.482 237.264 733.182 237.964 731.682 238.364Z" fill="#1D1D1F"/>
</svg>
